PathFileType	4	(X/Y/Z)	OpenSim_Sub07_CSStiffKnee_Accel.trc
DataRate	CameraRate	NumFrames	NumMarkers	Units	OrigDataRate	OrigDataStartFrame	OrigNumFrames
100	100	14	8	m	100	1	6734
Frame#	Time	torso_imu_offset_imu	pelvis_imu_offset_imu	tibia_r_imu_offset_imu	femur_r_imu_offset_imu	tibia_l_imu_offset_imu	femur_l_imu_offset_imu	toes_r_imu_offset_imu	toes_l_imu_offset_imu
				X1	Y1	Z1	X2	Y2	Z2	X3	Y3	Z3	X4	Y4	Z4	X5	Y5	Z5	X6	Y6	Z6	X7	Y7	Z7	X8		Y8	Z8	

1	0	-8.68326265	0.57647149	7.13806920	9.62936458	0.34956962	2.43065315	9.79235529	1.42550589	0.60911506	9.76625037	-0.32629655	1.42660393	9.75664455	-0.76060594	0.52619492	9.42539392	1.75741218	-1.80959153	5.00615919	1.19615195	8.58179938	5.27228348	1.59269541	10.89200299
2	0.01000000	-8.78455883	0.59835608	7.08191695	9.62295028	0.35823998	2.41874313	9.77398096	1.35224288	0.63345474	9.81689029	-0.31197883	1.37128576	9.75160287	-0.73603372	0.50671198	9.40637024	1.77003444	-1.78717919	5.03267318	1.16185418	8.57238707	5.25361709	1.64414125	10.86172711
3	0.02000000	-8.93909863	0.60762293	7.10245214	9.64949485	0.38158063	2.45027028	9.76344591	1.31977082	0.64318658	9.76721886	-0.31933328	1.37908710	9.80379927	-0.76265726	0.46382585	9.44607105	1.75101321	-1.80540010	5.04502933	1.16090891	8.59129193	5.27093209	1.64374643	10.87334792
4	0.03000000	-8.90974081	0.67563529	7.10202924	9.65897872	0.34748511	2.44875615	9.80952690	1.33440935	0.63520487	9.78205817	-0.32141317	1.44037666	9.82772080	-0.83846313	0.48194909	9.51100811	1.72054391	-1.79156378	5.00106902	1.13274439	8.60182774	5.26236238	1.65115078	10.87437972
5	0.04000000	-8.73519182	0.69727348	7.17004943	9.70072566	0.37749480	2.39464218	9.83341230	1.34605928	0.63997859	9.78244357	-0.29668451	1.47036701	9.82346302	-0.82617700	0.46219704	9.52305315	1.73090393	-1.80093847	4.99984860	1.15866168	8.58370175	5.27639363	1.57067726	10.85211013
6	0.05000000	-8.82291007	0.67864179	7.08609129	9.69581035	0.39619190	2.38560700	9.79461955	1.30078940	0.63087372	9.79350025	-0.27991244	1.50232525	9.79306993	-0.84141743	0.50840961	9.47401477	1.70482129	-1.74498335	5.02677000	1.15150502	8.57450338	5.31254535	1.61219131	10.87261564
7	0.06000000	-8.81928567	0.59209498	7.03365206	9.70026508	0.41542970	2.36334205	9.78895936	1.34356629	0.60229527	9.79113228	-0.23554382	1.49788350	9.76760431	-0.79338728	0.57212356	9.47173764	1.70652402	-1.68886626	5.00413623	1.14200350	8.57270160	5.26567386	1.57348593	10.86996688
8	0.07000000	-8.78415343	0.52420674	6.99736080	9.69726644	0.44423740	2.36592341	9.81646586	1.43203950	0.58574015	9.78516552	-0.28092500	1.46210360	9.76861704	-0.77553274	0.69267880	9.48947201	1.74508269	-1.69624896	4.97940323	1.16283353	8.54526873	5.29200820	1.58561989	10.85724202
9	0.08000000	-8.77686900	0.50614974	7.01512801	9.67811950	0.45098491	2.39950384	9.78828651	1.45760787	0.60003946	9.75410080	-0.36334685	1.47191273	9.78248674	-0.69614898	0.74213141	9.49006541	1.83736885	-1.68531090	5.04960623	1.13254609	8.56874210	5.27419816	1.56790175	10.88404579
10	0.09000000	-8.77829764	0.48235149	6.98222808	9.63996314	0.40293238	2.41616071	9.73970147	1.42475110	0.60729345	9.71868116	-0.32910806	1.54960494	9.78192271	-0.64413454	0.69954251	9.50459398	1.89825768	-1.71243421	5.02911573	1.16956741	8.57991520	5.27727785	1.63700931	10.86254337
11	0.10000000	-8.75398430	0.46683223	6.99190947	9.60884424	0.42100722	2.43010066	9.76206593	1.49090155	0.61488005	9.81065176	-0.23940384	1.52510159	9.76745430	-0.66737708	0.66629493	9.49154495	1.87314885	-1.73188235	5.00259005	1.17048340	8.55584032	5.25623848	1.56766839	10.83179835
12	0.11000000	-8.75555017	0.47121089	6.98802835	9.65260727	0.43059128	2.37836558	9.79371303	1.56379371	0.56450055	9.86074071	-0.21103537	1.44741177	9.77556431	-0.71948806	0.62046282	9.43226051	1.87761413	-1.71090402	5.05956591	1.19172318	8.54997193	5.27390961	1.60973595	10.86504679
13	0.12000000	-8.77649008	0.50608157	7.00393369	9.67313425	0.41055157	2.41024068	9.82297697	1.57546233	0.51010893	9.82726132	-0.18929405	1.41067163	9.77909485	-0.75914686	0.61766583	9.42224015	1.79604656	-1.66014972	5.02694149	1.16140347	8.56499621	5.31706274	1.60253756	10.81262577
14	0.13000000	-8.81659185	0.55564068	7.06119659	9.63933256	0.42822573	2.45492602	9.78356067	1.57320944	0.53015199	9.79490209	-0.19283820	1.48197616	9.77701734	-0.73438814	0.52229203	9.44799430	1.75858798	-1.72367763	5.04559647	1.16973805	8.60895446	5.29509495	1.62121304	10.82638173
